<svg width="284" height="175" viewBox="0 0 284 175" fill="none" xmlns="http://www.w3.org/2000/svg">
<path d="M96.8944 149.053V167.216C96.8944 169.28 97.7142 171.26 99.1733 172.72C100.632 174.18 102.611 175 104.675 175C106.739 175 108.718 174.18 110.177 172.72C111.636 171.26 112.456 169.28 112.456 167.216V149.04C166.453 146.523 209 118.656 209 84.6393C209 50.6227 166.44 22.7556 112.456 20.2387V7.78412C112.456 5.71964 111.636 3.73972 110.177 2.27991C108.718 0.820104 106.739 0 104.675 0C102.611 0 100.632 0.820104 99.1733 2.27991C97.7142 3.73972 96.8944 5.71964 96.8944 7.78412V20.2128C42.7285 22.6258 0 50.5449 0 84.6393C0 118.734 42.7285 146.653 96.8944 149.053ZM104.675 60.2491C106.739 60.2491 108.718 59.429 110.177 57.9692C111.636 56.5094 112.456 54.5294 112.456 52.465V35.807C134.501 36.9227 154.743 42.631 170.214 52.1925C190.417 64.686 193.439 77.8801 193.439 84.6264C193.439 91.3726 190.417 104.58 170.214 117.06C152.902 127.763 129.56 133.653 104.506 133.653C91.9738 133.704 79.4869 132.138 67.3541 128.996L83.4988 95.8874C84.9709 92.8081 85.2093 89.2821 84.1652 86.0325C83.1211 82.783 80.8736 80.0564 77.8838 78.412L77.7023 78.3083C75.588 77.067 73.1738 76.4299 70.7226 76.4665C68.2714 76.5031 65.8773 77.212 63.8009 78.5158L23.4715 104.242C16.858 96.2766 15.5612 89.0633 15.5612 84.6393C15.5612 77.8801 18.5827 64.686 38.7863 52.2055C54.3475 42.5921 74.7457 36.8708 96.8944 35.807V52.465C96.8944 54.5294 97.7142 56.5094 99.1733 57.9692C100.632 59.429 102.611 60.2491 104.675 60.2491Z" fill="black"/>
<path d="M231.556 58.2023C230.422 57.3535 228.995 56.9891 227.591 57.1891C226.187 57.3892 224.92 58.1373 224.07 59.269C223.219 60.4007 222.853 61.8231 223.054 63.2235C223.254 64.6238 224.004 65.8874 225.139 66.7361C227.041 68.9221 228.492 71.4604 229.409 74.2059C230.327 76.9515 230.693 79.8504 230.487 82.7372C230.693 85.6239 230.327 88.5228 229.409 91.2684C228.492 94.0139 227.041 96.5522 225.139 98.7382C224.577 99.1584 224.104 99.6849 223.746 100.288C223.388 100.89 223.153 101.557 223.054 102.251C222.954 102.944 222.993 103.65 223.167 104.329C223.342 105.007 223.648 105.645 224.07 106.205C224.568 106.868 225.214 107.405 225.956 107.776C226.699 108.146 227.517 108.339 228.348 108.339C229.505 108.339 230.63 107.964 231.556 107.272C234.846 104.121 237.41 100.296 239.072 96.0597C240.734 91.8235 241.454 87.278 241.182 82.7372C241.454 78.1964 240.734 73.6508 239.072 69.4147C237.41 65.1785 234.846 61.3529 231.556 58.2023Z" fill="black"/>
<path d="M257.224 24.0667C256.662 23.6465 256.023 23.3407 255.343 23.1669C254.662 22.993 253.954 22.9546 253.259 23.0536C252.564 23.1527 251.895 23.3873 251.291 23.7442C250.687 24.101 250.159 24.5731 249.738 25.1335C249.316 25.6938 249.01 26.3314 248.835 27.01C248.661 27.6885 248.622 28.3946 248.722 29.088C248.922 30.4883 249.672 31.7519 250.807 32.6006C258.155 38.68 264.002 46.3638 267.897 55.0575C271.791 63.7512 273.629 73.2219 273.267 82.7372C273.629 92.2524 271.791 101.723 267.897 110.417C264.002 119.111 258.155 126.794 250.807 132.874C249.672 133.722 248.922 134.986 248.722 136.386C248.521 137.787 248.887 139.209 249.738 140.341C250.236 141.003 250.882 141.541 251.624 141.911C252.367 142.282 253.185 142.474 254.016 142.474C255.173 142.474 256.298 142.1 257.224 141.408C265.9 134.334 272.825 125.361 277.462 115.186C282.099 105.012 284.323 93.908 283.962 82.7372C284.323 71.5663 282.099 60.4627 277.462 50.2878C272.825 40.113 265.9 31.1406 257.224 24.0667Z" fill="black"/>
<path d="M244.39 41.1344C243.828 40.7142 243.189 40.4084 242.509 40.2346C241.828 40.0607 241.12 40.0222 240.425 40.1213C239.73 40.2203 239.061 40.455 238.457 40.8119C237.853 41.1687 237.325 41.6408 236.904 42.2012C236.482 42.7615 236.176 43.3991 236.001 44.0777C235.827 44.7562 235.788 45.4623 235.888 46.1557C235.987 46.8491 236.222 47.5161 236.58 48.1188C236.938 48.7215 237.411 49.248 237.973 49.6683C242.622 53.7926 246.285 58.9044 248.691 64.6274C251.097 70.3504 252.186 76.5389 251.877 82.7371C252.186 88.9353 251.097 95.1237 248.691 100.847C246.285 106.57 242.622 111.682 237.973 115.806C237.411 116.226 236.938 116.753 236.58 117.355C236.222 117.958 235.987 118.625 235.888 119.319C235.788 120.012 235.827 120.718 236.001 121.397C236.176 122.075 236.482 122.713 236.904 123.273C237.402 123.935 238.048 124.473 238.79 124.843C239.533 125.214 240.351 125.406 241.182 125.406C242.339 125.406 243.464 125.032 244.39 124.34C250.407 119.252 255.175 112.857 258.326 105.645C261.478 98.4331 262.931 90.5963 262.572 82.7371C262.931 74.8778 261.478 67.0411 258.326 59.8291C255.175 52.6171 250.407 46.2218 244.39 41.1344Z" fill="black"/>
</svg>
