<svg width="194" height="145" viewBox="0 0 194 145" fill="none" xmlns="http://www.w3.org/2000/svg">
<path d="M82.34 0C36.87 0 0 22.78 0 50.88V94.03C0 122.13 36.86 144.91 82.34 144.91C127.82 144.91 164.68 122.13 164.68 94.03V50.89C164.68 22.78 127.81 0 82.34 0ZM12.01 50.89C12.01 45.52 14.4 35.02 30.43 25.12C44.11 16.67 62.55 12.01 82.34 12.01C102.13 12.01 120.61 16.66 134.25 25.11C150.25 35.02 152.67 45.51 152.67 50.88C152.67 56.25 150.28 66.75 134.25 76.65C120.61 85.11 102.14 89.73 82.34 89.73C62.54 89.73 44.11 85.07 30.43 76.62C14.4 66.73 12.01 56.26 12.01 50.89ZM88.34 132.73V101.62C99.988 101.163 111.51 99.031 122.55 95.29V125.66C111.615 129.89 100.056 132.279 88.34 132.73ZM42.13 125.63V95.29C53.1704 99.031 64.692 101.163 76.34 101.62V132.73C64.6278 132.278 53.0714 129.889 42.14 125.66L42.13 125.63ZM12.01 77.35C17.3252 82.5857 23.4464 86.9344 30.14 90.23V119.62C14.38 109.73 12.01 99.38 12.01 94.04V77.35ZM134.55 90.23C141.244 86.9344 147.365 82.5857 152.68 77.35V94.04C152.68 99.38 150.31 109.77 134.55 119.62V90.23Z" fill="black"/>
<path d="M187.611 61.6487C186.867 61.0922 185.931 60.8532 185.011 60.9844C184.09 61.1156 183.259 61.6062 182.701 62.3482C182.143 63.0903 181.904 64.0231 182.035 64.9413C182.167 65.8596 182.659 66.6882 183.403 67.2447C184.65 68.6781 185.601 70.3426 186.203 72.1429C186.804 73.9433 187.044 75.8442 186.909 77.7372C187.044 79.6301 186.804 81.5311 186.203 83.3314C185.601 85.1318 184.65 86.7962 183.403 88.2296C183.034 88.5052 182.724 88.8505 182.489 89.2457C182.255 89.6409 182.1 90.0783 182.035 90.533C181.97 90.9877 181.995 91.4507 182.11 91.8956C182.224 92.3406 182.425 92.7587 182.701 93.1261C183.028 93.5605 183.452 93.9131 183.938 94.1559C184.425 94.3987 184.962 94.5251 185.507 94.5251C186.265 94.5251 187.004 94.2797 187.611 93.8256C189.768 91.7596 191.449 89.251 192.539 86.4732C193.629 83.6955 194.101 80.7147 193.922 77.7372C194.101 74.7596 193.629 71.7789 192.539 69.0011C191.449 66.2233 189.768 63.7147 187.611 61.6487Z" fill="black"/>
</svg>
