<svg width="190" height="162" viewBox="0 0 190 162" fill="none" xmlns="http://www.w3.org/2000/svg">
<path d="M60.8889 0V23.0091C25.6748 24.9581 0 40.5 0 60.75C0.125255 64.6356 1.07667 68.4504 2.79121 71.9414C4.50574 75.4325 6.94426 78.5202 9.94519 81C6.94302 83.4787 4.50365 86.5662 2.789 90.0575C1.07434 93.5488 0.123643 97.364 0 101.25C0 121.5 25.6748 137.042 60.8889 138.991V162H76.1111V138.991C111.325 137.042 137 121.5 137 101.25C136.876 97.364 135.926 93.5488 134.211 90.0575C132.496 86.5662 130.057 83.4787 127.055 81C130.056 78.5202 132.494 75.4325 134.209 71.9414C135.923 68.4504 136.875 64.6356 137 60.75C137 40.5 111.325 24.9581 76.1111 23.0091V0H60.8889ZM121.778 101.25C121.778 112.008 98.9445 124.031 68.5 124.031C38.0556 124.031 15.2222 112.008 15.2222 101.25C15.2222 97.3772 18.1906 93.3525 23.4169 89.7834C37.6173 95.9886 53.0006 99.0375 68.5 98.7188C83.9994 99.0375 99.3827 95.9886 113.583 89.7834C118.809 93.3525 121.778 97.3772 121.778 101.25ZM121.778 60.75C121.778 71.5078 98.9445 83.5312 68.5 83.5312C38.0556 83.5312 15.2222 71.5078 15.2222 60.75C15.2222 50.9034 34.3007 40.0444 60.8889 38.2472V60.75H76.1111V38.2472C102.699 40.0444 121.778 50.9034 121.778 60.75Z" fill="black"/>
<path d="M164.125 60.1024C163.181 59.3955 161.993 59.092 160.824 59.2587C159.654 59.4253 158.599 60.0483 157.891 60.9907C157.182 61.9332 156.878 63.1178 157.045 64.284C157.212 65.4502 157.836 66.5025 158.781 67.2093C160.365 69.0298 161.573 71.1437 162.337 73.4301C163.102 75.7166 163.407 78.1308 163.235 80.5349C163.407 82.9389 163.102 85.3531 162.337 87.6396C161.573 89.926 160.365 92.0399 158.781 93.8604C158.314 94.2104 157.919 94.6488 157.621 95.1508C157.323 95.6527 157.127 96.2082 157.045 96.7857C156.962 97.3631 156.994 97.9512 157.139 98.5162C157.284 99.0813 157.54 99.6123 157.891 100.079C158.306 100.631 158.843 101.078 159.462 101.387C160.08 101.695 160.762 101.856 161.453 101.856C162.417 101.856 163.355 101.544 164.125 100.967C166.865 98.3435 169.001 95.1576 170.385 91.6297C171.769 88.1019 172.368 84.3164 172.142 80.5349C172.368 76.7533 171.769 72.9678 170.385 69.44C169.001 65.9122 166.865 62.7262 164.125 60.1024Z" fill="black"/>
<path d="M174.814 45.8884C174.346 45.5384 173.814 45.2837 173.247 45.139C172.681 44.9942 172.091 44.9621 171.512 45.0446C170.933 45.1271 170.376 45.3226 169.873 45.6198C169.37 45.9169 168.93 46.3101 168.579 46.7767C168.228 47.2434 167.973 47.7744 167.828 48.3395C167.683 48.9045 167.651 49.4926 167.733 50.07C167.816 50.6475 168.012 51.203 168.31 51.7049C168.608 52.2069 169.002 52.6453 169.47 52.9953C173.342 56.43 176.392 60.6871 178.396 65.4532C180.4 70.2192 181.306 75.3729 181.049 80.5348C181.306 85.6966 180.4 90.8503 178.396 95.6163C176.392 100.382 173.342 104.64 169.47 108.074C169.002 108.424 168.608 108.863 168.31 109.365C168.012 109.866 167.816 110.422 167.733 110.999C167.651 111.577 167.683 112.165 167.828 112.73C167.973 113.295 168.228 113.826 168.579 114.293C168.994 114.844 169.532 115.292 170.15 115.601C170.769 115.909 171.451 116.069 172.142 116.069C173.105 116.069 174.043 115.758 174.814 115.181C179.825 110.944 183.795 105.618 186.42 99.6123C189.045 93.6062 190.254 87.0799 189.956 80.5348C190.254 73.9896 189.045 67.4633 186.42 61.4572C183.795 55.4511 179.825 50.1251 174.814 45.8884Z" fill="black"/>
</svg>
