<svg width="243" height="145" viewBox="0 0 243 145" fill="none" xmlns="http://www.w3.org/2000/svg">
<path d="M82.34 0C36.87 0 0 22.78 0 50.88V94.03C0 122.13 36.86 144.91 82.34 144.91C127.82 144.91 164.68 122.13 164.68 94.03V50.89C164.68 22.78 127.81 0 82.34 0ZM12.01 50.89C12.01 45.52 14.4 35.02 30.43 25.12C44.11 16.67 62.55 12.01 82.34 12.01C102.13 12.01 120.61 16.66 134.25 25.11C150.25 35.02 152.67 45.51 152.67 50.88C152.67 56.25 150.28 66.75 134.25 76.65C120.61 85.11 102.14 89.73 82.34 89.73C62.54 89.73 44.11 85.07 30.43 76.62C14.4 66.73 12.01 56.26 12.01 50.89ZM88.34 132.73V101.62C99.988 101.163 111.51 99.031 122.55 95.29V125.66C111.615 129.89 100.056 132.279 88.34 132.73ZM42.13 125.63V95.29C53.1704 99.031 64.692 101.163 76.34 101.62V132.73C64.6278 132.278 53.0714 129.889 42.14 125.66L42.13 125.63ZM12.01 77.35C17.3252 82.5857 23.4464 86.9344 30.14 90.23V119.62C14.38 109.73 12.01 99.38 12.01 94.04V77.35ZM134.55 90.23C141.244 86.9344 147.365 82.5857 152.68 77.35V94.04C152.68 99.38 150.31 109.77 134.55 119.62V90.23Z" fill="black"/>
<path d="M190.556 53.2023C189.422 52.3535 187.995 51.9891 186.591 52.1891C185.187 52.3892 183.92 53.1373 183.07 54.269C182.219 55.4007 181.853 56.8231 182.054 58.2235C182.254 59.6238 183.004 60.8874 184.139 61.7361C186.041 63.9221 187.492 66.4604 188.409 69.2059C189.327 71.9515 189.693 74.8504 189.487 77.7372C189.693 80.6239 189.327 83.5228 188.409 86.2684C187.492 89.0139 186.041 91.5522 184.139 93.7382C183.577 94.1584 183.104 94.6849 182.746 95.2877C182.388 95.8904 182.153 96.5574 182.054 97.2508C181.954 97.9442 181.993 98.6503 182.167 99.3288C182.342 100.007 182.648 100.645 183.07 101.205C183.568 101.868 184.214 102.405 184.956 102.776C185.699 103.146 186.517 103.339 187.348 103.339C188.505 103.339 189.63 102.964 190.556 102.272C193.846 99.1214 196.41 95.2958 198.072 91.0597C199.734 86.8235 200.454 82.278 200.182 77.7372C200.454 73.1964 199.734 68.6508 198.072 64.4147C196.41 60.1785 193.846 56.3529 190.556 53.2023Z" fill="black"/>
<path d="M216.224 19.0667C215.662 18.6465 215.023 18.3407 214.343 18.1669C213.662 17.993 212.954 17.9546 212.259 18.0536C211.564 18.1527 210.895 18.3873 210.291 18.7442C209.687 19.101 209.159 19.5731 208.738 20.1335C208.316 20.6938 208.01 21.3314 207.835 22.01C207.661 22.6885 207.622 23.3946 207.722 24.088C207.922 25.4883 208.672 26.7519 209.807 27.6006C217.155 33.68 223.002 41.3638 226.897 50.0575C230.791 58.7512 232.629 68.2219 232.267 77.7372C232.629 87.2524 230.791 96.7231 226.897 105.417C223.002 114.111 217.155 121.794 209.807 127.874C208.672 128.722 207.922 129.986 207.722 131.386C207.521 132.787 207.887 134.209 208.738 135.341C209.236 136.003 209.882 136.541 210.624 136.911C211.367 137.282 212.185 137.474 213.016 137.474C214.173 137.474 215.298 137.1 216.224 136.408C224.9 129.334 231.825 120.361 236.462 110.186C241.099 100.012 243.323 88.908 242.962 77.7372C243.323 66.5663 241.099 55.4627 236.462 45.2878C231.825 35.113 224.9 26.1406 216.224 19.0667Z" fill="black"/>
<path d="M203.391 36.1344C202.829 35.7142 202.189 35.4084 201.509 35.2346C200.829 35.0607 200.121 35.0222 199.426 35.1213C198.731 35.2203 198.062 35.455 197.457 35.8119C196.853 36.1687 196.325 36.6408 195.904 37.2012C195.483 37.7615 195.176 38.3991 195.002 39.0777C194.827 39.7562 194.789 40.4623 194.888 41.1557C194.988 41.8491 195.223 42.5161 195.581 43.1188C195.938 43.7215 196.412 44.248 196.973 44.6683C201.623 48.7926 205.285 53.9044 207.692 59.6274C210.098 65.3504 211.186 71.5389 210.877 77.7371C211.186 83.9353 210.098 90.1237 207.692 95.8468C205.285 101.57 201.623 106.682 196.973 110.806C196.412 111.226 195.938 111.753 195.581 112.355C195.223 112.958 194.988 113.625 194.888 114.319C194.789 115.012 194.827 115.718 195.002 116.397C195.176 117.075 195.483 117.713 195.904 118.273C196.402 118.935 197.048 119.473 197.791 119.843C198.533 120.214 199.352 120.406 200.182 120.406C201.339 120.406 202.465 120.032 203.391 119.34C209.407 114.252 214.175 107.857 217.327 100.645C220.479 93.4331 221.931 85.5963 221.572 77.7371C221.931 69.8778 220.479 62.0411 217.327 54.8291C214.175 47.6171 209.407 41.2218 203.391 36.1344Z" fill="black"/>
</svg>
