<svg width="232" height="209" viewBox="0 0 232 209" fill="none" xmlns="http://www.w3.org/2000/svg">
<path d="M200.637 78.9703C199.492 78.1135 198.052 77.7456 196.635 77.9476C195.217 78.1495 193.939 78.9047 193.08 80.0471C192.221 81.1895 191.852 82.6254 192.054 84.039C192.257 85.4526 193.014 86.7281 194.159 87.5849C196.079 89.7916 197.543 92.3539 198.47 95.1254C199.396 97.8969 199.766 100.823 199.557 103.737C199.766 106.651 199.396 109.578 198.47 112.349C197.543 115.121 196.079 117.683 194.159 119.89C193.592 120.314 193.114 120.845 192.753 121.454C192.392 122.062 192.155 122.736 192.054 123.436C191.954 124.135 191.993 124.848 192.169 125.533C192.345 126.218 192.654 126.862 193.08 127.427C193.582 128.096 194.234 128.639 194.984 129.013C195.734 129.386 196.56 129.581 197.398 129.581C198.566 129.581 199.703 129.203 200.637 128.504C203.958 125.324 206.547 121.462 208.224 117.186C209.902 112.91 210.628 108.321 210.354 103.737C210.628 99.1535 209.902 94.5649 208.224 90.2887C206.547 86.0125 203.958 82.1507 200.637 78.9703Z" fill="black"/>
<path d="M213.592 61.741C213.025 61.3168 212.38 61.0081 211.693 60.8326C211.006 60.6572 210.292 60.6183 209.59 60.7183C208.888 60.8183 208.213 61.0552 207.603 61.4154C206.993 61.7757 206.46 62.2522 206.035 62.8178C205.609 63.3835 205.3 64.0271 205.124 64.7121C204.948 65.397 204.909 66.1098 205.009 66.8098C205.11 67.5097 205.347 68.1831 205.708 68.7915C206.069 69.3999 206.547 69.9314 207.114 70.3556C211.808 74.5189 215.505 79.6791 217.934 85.4562C220.363 91.2334 221.462 97.4804 221.15 103.737C221.462 109.994 220.363 116.241 217.934 122.018C215.505 127.795 211.808 132.956 207.114 137.119C206.547 137.543 206.069 138.075 205.708 138.683C205.347 139.291 205.11 139.965 205.009 140.665C204.909 141.365 204.948 142.077 205.124 142.762C205.3 143.447 205.609 144.091 206.035 144.657C206.538 145.325 207.19 145.868 207.939 146.242C208.689 146.616 209.515 146.81 210.353 146.81C211.521 146.81 212.658 146.432 213.592 145.733C219.666 140.598 224.479 134.142 227.66 126.862C230.842 119.582 232.308 111.671 231.946 103.737C232.308 95.8036 230.842 87.8928 227.66 80.6126C224.479 73.3323 219.666 66.8765 213.592 61.741Z" fill="black"/>
<path d="M3.29423 197.98C3.99795 198.337 4.76512 198.551 5.55181 198.611C6.3385 198.671 7.12927 198.575 7.87886 198.329C8.62844 198.083 9.32212 197.691 9.92019 197.176C10.5183 196.662 11.009 196.034 11.3642 195.33L20.0342 178.16C36.0942 196.78 60.6142 208.69 88.1042 208.69C115.594 208.69 140.104 196.78 156.174 178.16L164.844 195.33C165.193 196.044 165.68 196.683 166.277 197.207C166.874 197.732 167.57 198.133 168.323 198.386C169.077 198.64 169.873 198.741 170.666 198.684C171.459 198.627 172.233 198.413 172.942 198.055C173.652 197.697 174.283 197.201 174.799 196.596C175.315 195.992 175.706 195.291 175.95 194.534C176.193 193.777 176.283 192.979 176.215 192.187C176.147 191.395 175.922 190.625 175.554 189.92L164.114 167.27C171.142 155.824 175.106 142.762 175.624 129.34H175.684V82.34C175.684 36.87 136.464 0 88.0942 0C39.7242 0 0.504228 36.89 0.504228 82.36V129.36H0.564229C1.08241 142.782 5.04622 155.844 12.0742 167.29L0.644227 189.92C-0.0730254 191.34 -0.196781 192.987 0.300176 194.499C0.797132 196.01 1.87411 197.262 3.29423 197.98ZM12.5042 126.34C12.5042 87.55 46.4142 56 88.0942 56C129.774 56 163.684 87.55 163.684 126.34C163.684 165.13 129.774 196.68 88.0942 196.68C46.4142 196.68 12.5042 165.13 12.5042 126.34ZM82.0942 12.26V44.2C69.8845 44.9569 57.9515 48.1604 47.0042 53.62V23.37C57.6608 16.9507 69.685 13.1436 82.0942 12.26ZM129.184 23.36V53.62C118.236 48.1638 106.303 44.9638 94.0942 44.21V12.26C106.503 13.1436 118.528 16.9507 129.184 23.37V23.36ZM163.684 84.72C157.813 75.3688 150.17 67.2564 141.184 60.84V32.35C155.064 45.11 163.684 62.82 163.684 82.35V84.72ZM35.0042 32.35V60.85C26.0184 67.2662 18.3748 75.3786 12.5042 84.73V82.36C12.5042 62.81 21.1242 45.11 35.0042 32.35Z" fill="black"/>
</svg>
