<svg width="236" height="141" viewBox="0 0 236 141" fill="none" xmlns="http://www.w3.org/2000/svg">
<path d="M70.2238 0V26.5924C29.6126 28.845 0.00281559 46.8074 0.00281559 70.2111C0.147268 74.7019 1.2445 79.1107 3.22181 83.1454C5.19913 87.1802 11.6649 45.3779 11.0882 47.1115C7.62595 49.9763 5.1939 53.8183 3.21645 57.8533C1.239 61.8884 0.142593 66.2978 0 70.7889C0 94.1926 29.6098 112.155 70.221 114.408V141H87.7762V114.408C128.387 112.155 157.997 94.1926 157.997 70.7889C157.855 66.2978 156.758 61.8884 154.781 57.8533C152.803 53.8183 149.99 50.25 146.528 47.3852C149.989 44.5193 152.804 87.1802 154.781 83.1454C156.758 79.1107 157.856 74.7019 158 70.2111C158 46.8074 128.39 28.845 87.779 26.5924V0H70.2238ZM140.445 70.2111C140.445 82.6443 114.112 96.5402 79.0014 96.5402C43.8908 96.5402 17.5581 82.6443 17.5581 70.2111C17.5581 58.831 39.5606 46.2808 70.2238 44.2037V70.2111H87.779V44.2037C118.442 46.2808 140.445 58.831 140.445 70.2111Z" fill="black"/>
<path d="M183.556 49.2023C182.422 48.3535 180.995 47.9891 179.591 48.1891C178.187 48.3892 176.92 49.1373 176.07 50.269C175.219 51.4007 174.853 52.8231 175.054 54.2235C175.254 55.6238 176.004 56.8874 177.139 57.7361C179.041 59.9221 180.492 62.4604 181.409 65.2059C182.327 67.9515 182.693 70.8504 182.487 73.7372C182.693 76.6239 182.327 79.5228 181.409 82.2684C180.492 85.0139 179.041 87.5522 177.139 89.7382C176.577 90.1584 176.104 90.6849 175.746 91.2877C175.388 91.8904 175.153 92.5574 175.054 93.2508C174.954 93.9442 174.993 94.6503 175.167 95.3288C175.342 96.0074 175.648 96.645 176.07 97.2053C176.568 97.8677 177.214 98.4054 177.956 98.7757C178.699 99.146 179.517 99.3388 180.348 99.3388C181.505 99.3388 182.63 98.9645 183.556 98.2721C186.846 95.1214 189.41 91.2958 191.072 87.0597C192.734 82.8235 193.454 78.278 193.182 73.7372C193.454 69.1964 192.734 64.6508 191.072 60.4147C189.41 56.1785 186.846 52.3529 183.556 49.2023Z" fill="black"/>
<path d="M209.224 15.0667C208.662 14.6465 208.023 14.3407 207.343 14.1669C206.662 13.993 205.954 13.9546 205.259 14.0536C204.564 14.1527 203.895 14.3873 203.291 14.7442C202.687 15.101 202.159 15.5731 201.738 16.1335C201.316 16.6938 201.01 17.3314 200.835 18.01C200.661 18.6885 200.622 19.3946 200.722 20.088C200.922 21.4883 201.672 22.7519 202.807 23.6006C210.155 29.68 216.002 37.3638 219.897 46.0575C223.791 54.7512 225.629 64.2219 225.267 73.7372C225.629 83.2524 223.791 92.7231 219.897 101.417C216.002 110.111 210.155 117.794 202.807 123.874C201.672 124.722 200.922 125.986 200.722 127.386C200.521 128.787 200.887 130.209 201.738 131.341C202.236 132.003 202.882 132.541 203.624 132.911C204.367 133.282 205.185 133.474 206.016 133.474C207.173 133.474 208.298 133.1 209.224 132.408C217.9 125.334 224.825 116.361 229.462 106.186C234.099 96.0116 236.323 84.908 235.962 73.7372C236.323 62.5663 234.099 51.4627 229.462 41.2878C224.825 31.113 217.9 22.1406 209.224 15.0667Z" fill="black"/>
<path d="M196.391 32.1344C195.829 31.7142 195.189 31.4084 194.509 31.2346C193.829 31.0607 193.121 31.0222 192.426 31.1213C191.731 31.2203 191.062 31.455 190.457 31.8119C189.853 32.1687 189.325 32.6408 188.904 33.2012C188.483 33.7615 188.176 34.3991 188.002 35.0777C187.827 35.7562 187.789 36.4623 187.888 37.1557C187.988 37.8491 188.223 38.5161 188.581 39.1188C188.938 39.7215 189.412 40.248 189.973 40.6683C194.623 44.7926 198.285 49.9044 200.692 55.6274C203.098 61.3504 204.186 67.5389 203.877 73.7371C204.186 79.9353 203.098 86.1237 200.692 91.8468C198.285 97.5698 194.623 102.682 189.973 106.806C189.412 107.226 188.938 107.753 188.581 108.355C188.223 108.958 187.988 109.625 187.888 110.319C187.789 111.012 187.827 111.718 188.002 112.397C188.176 113.075 188.483 113.713 188.904 114.273C189.402 114.935 190.048 115.473 190.791 115.843C191.533 116.214 192.352 116.406 193.182 116.406C194.339 116.406 195.465 116.032 196.391 115.34C202.407 110.252 207.175 103.857 210.327 96.6451C213.479 89.4331 214.931 81.5963 214.572 73.7371C214.931 65.8778 213.479 58.0411 210.327 50.8291C207.175 43.6171 202.407 37.2218 196.391 32.1344Z" fill="black"/>
</svg>
