<svg width="187" height="141" viewBox="0 0 187 141" fill="none" xmlns="http://www.w3.org/2000/svg">
<path d="M70.2238 0V26.5924C29.6126 28.845 0.00281559 46.8074 0.00281559 70.2111C0.147268 74.7019 1.2445 79.1107 3.22181 83.1454C5.19913 87.1802 11.6649 45.3779 11.0882 47.1115C7.62595 49.9763 5.1939 53.8183 3.21645 57.8533C1.239 61.8884 0.142593 66.2978 0 70.7889C0 94.1926 29.6098 112.155 70.221 114.408V141H87.7762V114.408C128.387 112.155 157.997 94.1926 157.997 70.7889C157.855 66.2978 156.758 61.8884 154.781 57.8533C152.803 53.8183 149.99 50.25 146.528 47.3852C149.989 44.5193 152.804 87.1802 154.781 83.1454C156.758 79.1107 157.856 74.7019 158 70.2111C158 46.8074 128.39 28.845 87.779 26.5924V0H70.2238ZM140.445 70.2111C140.445 82.6443 114.112 96.5402 79.0014 96.5402C43.8908 96.5402 17.5581 82.6443 17.5581 70.2111C17.5581 58.831 39.5606 46.2808 70.2238 44.2037V70.2111H87.779V44.2037C118.442 46.2808 140.445 58.831 140.445 70.2111Z" fill="black"/>
<path d="M180.611 53.6995C179.867 53.143 178.931 52.904 178.011 53.0352C177.09 53.1663 176.259 53.6569 175.701 54.399C175.143 55.1411 174.904 56.0739 175.035 56.9921C175.167 57.9104 175.659 58.7389 176.403 59.2955C177.65 60.7289 178.601 62.3934 179.203 64.1937C179.804 65.9941 180.044 67.895 179.909 69.788C180.044 71.6809 179.804 73.5818 179.203 75.3822C178.601 77.1825 177.65 78.847 176.403 80.2804C176.034 80.556 175.724 80.9013 175.489 81.2965C175.255 81.6917 175.1 82.1291 175.035 82.5838C174.97 83.0385 174.995 83.5015 175.11 83.9464C175.224 84.3914 175.425 84.8095 175.701 85.1769C176.028 85.6113 176.452 85.9638 176.938 86.2067C177.425 86.4495 177.962 86.5759 178.507 86.5759C179.265 86.5759 180.004 86.3305 180.611 85.8764C182.768 83.8104 184.449 81.3018 185.539 78.524C186.629 75.7462 187.101 72.7655 186.922 69.788C187.101 66.8104 186.629 63.8297 185.539 61.0519C184.449 58.2741 182.768 55.7655 180.611 53.6995Z" fill="black"/>
</svg>
