<svg width="205" height="141" viewBox="0 0 205 141" fill="none" xmlns="http://www.w3.org/2000/svg">
<path d="M70.2238 0V26.5924C29.6126 28.845 0.00281559 46.8074 0.00281559 70.2111C0.147268 74.7019 1.2445 79.1107 3.22181 83.1454C5.19913 87.1802 11.6649 45.3779 11.0882 47.1115C7.62595 49.9763 5.1939 53.8183 3.21645 57.8533C1.239 61.8884 0.142593 66.2978 0 70.7889C0 94.1926 29.6098 112.155 70.221 114.408V141H87.7762V114.408C128.387 112.155 157.997 94.1926 157.997 70.7889C157.855 66.2978 156.758 61.8884 154.781 57.8533C152.803 53.8183 149.99 50.25 146.528 47.3852C149.989 44.5193 152.804 87.1802 154.781 83.1454C156.758 79.1107 157.856 74.7019 158 70.2111C158 46.8074 128.39 28.845 87.779 26.5924V0H70.2238ZM140.445 70.2111C140.445 82.6443 114.112 96.5402 79.0014 96.5402C43.8908 96.5402 17.5581 82.6443 17.5581 70.2111C17.5581 58.831 39.5606 46.2808 70.2238 44.2037V70.2111H87.779V44.2037C118.442 46.2808 140.445 58.831 140.445 70.2111Z" fill="black"/>
<path d="M179.125 49.1024C178.181 48.3955 176.993 48.092 175.824 48.2587C174.654 48.4253 173.599 49.0483 172.891 49.9907C172.182 50.9332 171.878 52.1178 172.045 53.284C172.212 54.4502 172.836 55.5025 173.781 56.2093C175.365 58.0298 176.573 60.1437 177.337 62.4301C178.102 64.7166 178.407 67.1308 178.235 69.5349C178.407 71.9389 178.102 74.3531 177.337 76.6396C176.573 78.926 175.365 81.0399 173.781 82.8604C173.314 83.2104 172.919 83.6488 172.621 84.1508C172.323 84.6527 172.127 85.2082 172.045 85.7857C171.962 86.3631 171.994 86.9512 172.139 87.5162C172.284 88.0813 172.54 88.6123 172.891 89.079C173.306 89.6306 173.843 90.0784 174.462 90.3868C175.08 90.6952 175.762 90.8557 176.453 90.8557C177.417 90.8557 178.355 90.544 179.125 89.9673C181.865 87.3435 184.001 84.1576 185.385 80.6297C186.769 77.1019 187.368 73.3164 187.142 69.5349C187.368 65.7533 186.769 61.9678 185.385 58.44C184.001 54.9122 181.865 51.7262 179.125 49.1024Z" fill="black"/>
<path d="M189.814 34.8884C189.346 34.5384 188.814 34.2837 188.247 34.139C187.681 33.9942 187.091 33.9621 186.512 34.0446C185.933 34.1271 185.376 34.3226 184.873 34.6198C184.37 34.9169 183.93 35.3101 183.579 35.7767C183.228 36.2434 182.973 36.7744 182.828 37.3395C182.683 37.9045 182.651 38.4926 182.733 39.07C182.816 39.6475 183.012 40.203 183.31 40.7049C183.608 41.2069 184.002 41.6453 184.47 41.9953C188.342 45.43 191.392 49.6871 193.396 54.4532C195.4 59.2192 196.306 64.3729 196.049 69.5348C196.306 74.6966 195.4 79.8503 193.396 84.6163C191.392 89.3824 188.342 93.6395 184.47 97.0742C184.002 97.4242 183.608 97.8626 183.31 98.3646C183.012 98.8665 182.816 99.422 182.733 99.9995C182.651 100.577 182.683 101.165 182.828 101.73C182.973 102.295 183.228 102.826 183.579 103.293C183.994 103.844 184.532 104.292 185.15 104.601C185.769 104.909 186.451 105.069 187.142 105.069C188.105 105.069 189.043 104.758 189.814 104.181C194.825 99.9444 198.795 94.6184 201.42 88.6123C204.045 82.6062 205.254 76.0799 204.956 69.5348C205.254 62.9896 204.045 56.4633 201.42 50.4572C198.795 44.4511 194.825 39.1251 189.814 34.8884Z" fill="black"/>
</svg>
