<svg width="129" height="143" viewBox="0 0 129 143" fill="none" xmlns="http://www.w3.org/2000/svg">
<path d="M128.818 39.663C128.818 17.7574 99.9811 0 64.4091 0C28.8371 0 0 17.7574 0 39.663V103.337C0 125.243 28.8371 143 64.4091 143C99.9811 143 128.818 125.243 128.818 103.337V39.663ZM10.7903 39.663C10.7903 35.7657 12.5887 28.1323 24.5389 20.7677C34.8706 14.3977 49.3656 10.7512 64.4091 10.7512C79.4526 10.7512 93.9475 14.3977 104.279 20.7588C116.238 28.1234 118.028 35.7657 118.028 39.654C118.028 43.5424 116.229 51.1847 104.279 58.5493C103.056 59.3019 101.77 60.0186 100.431 60.6906C99.1449 60.7944 97.9391 61.3538 97.0317 62.2674C87.6442 66.3081 76.1705 68.5389 64.4091 68.5389C49.4016 68.5389 34.8706 64.8925 24.5389 58.5314C12.5797 51.1937 10.7903 43.5603 10.7903 39.663ZM31.9932 126.049C32.1061 125.613 32.1635 125.164 32.1641 124.714V73.9862C40.628 76.942 49.4726 78.6768 58.4295 79.1378V131.998C49.346 131.498 40.4105 129.488 31.9932 126.049ZM69.2198 79.2006C78.1566 78.8463 86.9987 77.2387 95.4851 74.4252V124.732C95.4842 125.342 95.5876 125.948 95.7909 126.524C87.3048 129.843 78.3272 131.744 69.2198 132.15V79.2006ZM10.7723 61.6313C13.9851 64.5555 17.5383 67.0852 21.3558 69.1661V120.118C12.229 113.443 10.7723 106.858 10.7723 103.337V61.6313ZM106.257 120.942V69.7933C110.516 67.5947 114.469 64.854 118.019 61.6403V103.346C118.028 107.001 116.445 113.99 106.275 120.942H106.257Z" fill="black"/>
</svg>
