<svg width="162" height="157" viewBox="0 0 162 157" fill="none" xmlns="http://www.w3.org/2000/svg">
<path d="M144.815 26.3234C143.851 24.8689 141.887 24.4707 140.43 25.4314L133.821 29.791C132.364 30.7527 131.963 32.7108 132.927 34.1648C133.536 35.083 134.543 35.5804 135.569 35.5804C136.169 35.5804 136.774 35.4109 137.311 35.0568L143.921 30.6972C145.378 29.7355 145.779 27.7774 144.815 26.3234Z" fill="black"/>
<path d="M159.068 59.0467C158.851 57.317 157.266 56.0877 155.535 56.3078L147.673 57.2911C145.94 57.5078 144.71 59.0856 144.928 60.8153C145.128 62.4117 146.491 63.5792 148.063 63.5792C148.194 63.5792 148.327 63.5712 148.461 63.5543L156.323 62.571C158.056 62.3543 159.286 60.7765 159.068 59.0467Z" fill="black"/>
<path d="M113.042 12.7161C113.542 13.0065 114.09 13.1449 114.63 13.1449C115.72 13.1449 116.78 12.5827 117.368 11.5754L121.353 4.74382C122.232 3.2372 121.72 1.30523 120.209 0.428325C118.699 -0.447658 116.762 0.0627672 115.883 1.56908L111.898 8.40063C111.019 9.90725 111.531 11.8392 113.042 12.7161Z" fill="black"/>
<path d="M131.528 87.2828C130.092 85.8499 128.377 84.8586 126.556 84.3091L130.81 80.0666C133.067 77.8147 134.31 74.8206 134.31 71.636C134.31 68.4514 133.067 65.4572 130.81 63.2056L129.324 61.724C127.875 60.2781 126.143 59.2822 124.304 58.7357C126.115 56.5914 127.101 53.9061 127.101 51.0695C127.101 47.8849 125.858 44.8908 123.6 42.6392L122.166 41.2087C121.133 40.1773 119.941 39.3612 118.649 38.7763C119.426 37.1769 119.838 35.4109 119.838 33.581C119.838 30.3964 118.595 27.4022 116.338 25.1506L114.904 23.7198C110.244 19.0718 102.662 19.0718 98.0015 23.7198L96.1351 25.5815C95.5844 23.7648 94.5921 22.054 93.1553 20.6206C90.8978 18.3687 87.8963 17.1287 84.7038 17.1287C81.5113 17.1287 78.5099 18.3687 76.2526 20.6206L40.2691 56.5151L40.2901 56.4428C41.3991 52.6319 40.8065 48.5282 38.6644 45.1842C36.5225 41.8405 33.0386 39.58 29.1061 38.9827C22.9334 38.0438 16.8724 41.376 14.3711 47.085L5.252 67.8972C1.81124 75.7502 0.417534 84.408 1.22153 92.9345C1.99678 101.156 4.80219 109.116 9.33442 116.006C11.3535 125.702 16.1102 134.512 23.1446 141.529C32.7423 151.103 45.503 156.376 59.0761 156.376C72.6493 156.376 85.4102 151.103 95.0077 141.529L132.007 104.621C136.667 99.9726 136.667 92.409 132.008 87.7615L131.528 87.2828ZM102.476 28.1836C104.669 25.9964 108.237 25.9964 110.429 28.1833L111.863 29.6141C112.925 30.6738 113.51 32.0824 113.51 33.581C113.51 35.0793 112.925 36.4882 111.863 37.5479L111.485 37.9251C109.142 38.3639 106.986 39.4906 105.264 41.2087L103.405 43.0633C102.842 41.2121 101.827 39.5159 100.418 38.1091C98.9928 36.6882 97.2945 35.704 95.4908 35.1519L102.476 28.1836ZM80.7274 25.0841C81.7894 24.0247 83.2018 23.4412 84.7038 23.4412C86.2061 23.4412 87.6182 24.0247 88.6805 25.0844C90.8734 27.2716 90.8734 30.8307 88.6805 33.0178L84.2403 37.4471C83.9922 37.6571 83.7489 37.8757 83.5148 38.1091L47.5313 74.0041L47.5525 73.9313C48.6613 70.1204 48.0688 66.017 45.927 62.6733C45.5546 62.0919 45.1391 61.5454 44.6902 61.0325L80.7274 25.0841ZM11.0505 70.4253L20.1696 49.6131C21.5248 46.5201 24.8072 44.7166 28.1533 45.223C30.2839 45.5467 32.1714 46.7716 33.332 48.5833C34.4925 50.3951 34.8136 52.6183 34.2129 54.6835L33.7344 56.3279C28.5324 56.5378 23.7768 59.6823 21.6333 64.5736L12.5144 85.386C10.5859 89.7873 9.30595 94.3858 8.68724 99.0665C8.12824 96.8629 7.73605 94.6145 7.52184 92.3433C6.81812 84.8793 8.03832 77.3003 11.0505 70.4253ZM127.532 100.158L90.5329 137.066C82.1305 145.448 70.959 150.064 59.0761 150.064C47.1933 150.064 36.0217 145.448 27.6194 137.066C21.2677 130.73 17.0293 122.727 15.3623 113.923C13.6952 105.118 14.7155 96.1243 18.3129 87.9141L27.4318 67.1016C28.6344 64.3569 31.3547 62.6265 34.2898 62.6265C34.6623 62.6265 35.0387 62.6545 35.4155 62.7116C37.5463 63.0355 39.4339 64.2604 40.5945 66.0722C41.7549 67.8839 42.0759 70.1072 41.4753 72.172L38.0209 84.044C37.6183 85.4276 38.206 86.9074 39.4492 87.6407C40.6923 88.3733 42.2752 88.1739 43.2969 87.1555L87.9893 42.5729C90.1822 40.3863 93.7504 40.3854 95.9427 42.5729C97.005 43.6326 97.5899 45.0412 97.5899 46.5398C97.5899 48.0381 97.005 49.447 95.9427 50.5064L67.98 78.4003C66.7443 79.6329 66.7443 81.6315 67.9802 82.8641C69.2158 84.0964 71.2191 84.0964 72.4548 82.8641L109.739 45.6724C111.931 43.4849 115.499 43.4856 117.692 45.6724L119.126 47.1029C120.188 48.1623 120.773 49.5712 120.773 51.0695C120.773 52.5681 120.188 53.9767 119.126 55.0364L82.0808 91.9895C80.8453 93.2221 80.8453 95.2206 82.0808 96.4532C83.3167 97.6855 85.3196 97.6858 86.5556 96.4532L116.896 66.1877C119.089 64.0003 122.657 64.0009 124.849 66.1877L126.335 67.6694C127.397 68.7288 127.982 70.1377 127.982 71.636C127.982 73.1346 127.397 74.5432 126.335 75.6029L114.668 87.2403C114.654 87.2545 114.64 87.2687 114.626 87.2828L96.0907 105.772C94.8551 107.004 94.8551 109.003 96.0907 110.236C97.3267 111.468 99.3296 111.469 100.566 110.236L119.128 91.7192C121.323 89.5594 124.87 89.5683 127.053 91.7457L127.532 92.2243C129.725 94.4115 129.725 97.9706 127.532 100.158Z" fill="black"/>
<path d="M146.815 26.3234C145.851 24.8689 143.887 24.4707 142.43 25.4314L135.821 29.791C134.364 30.7527 133.963 32.7108 134.927 34.1648C135.536 35.083 136.543 35.5804 137.569 35.5804C138.169 35.5804 138.774 35.4109 139.311 35.0568L145.921 30.6972C147.378 29.7355 147.779 27.7774 146.815 26.3234Z" fill="black"/>
<path d="M161.068 59.0467C160.851 57.317 159.266 56.0877 157.535 56.3078L149.673 57.2911C147.94 57.5078 146.71 59.0856 146.928 60.8153C147.128 62.4117 148.491 63.5792 150.063 63.5792C150.194 63.5792 150.327 63.5712 150.461 63.5543L158.323 62.571C160.056 62.3543 161.286 60.7765 161.068 59.0467Z" fill="black"/>
<path d="M115.042 12.7161C115.542 13.0065 116.09 13.1449 116.63 13.1449C117.72 13.1449 118.78 12.5827 119.368 11.5754L123.353 4.74382C124.232 3.2372 123.72 1.30523 122.209 0.428325C120.699 -0.447658 118.762 0.0627672 117.883 1.56908L113.898 8.40063C113.019 9.90725 113.531 11.8392 115.042 12.7161Z" fill="black"/>
<path d="M133.528 87.2828C132.092 85.8499 130.377 84.8586 128.556 84.3091L132.81 80.0666C135.067 77.8147 136.31 74.8206 136.31 71.636C136.31 68.4514 135.067 65.4572 132.81 63.2056L131.324 61.724C129.875 60.2781 128.143 59.2822 126.304 58.7357C128.115 56.5914 129.101 53.9061 129.101 51.0695C129.101 47.8849 127.858 44.8908 125.6 42.6392L124.166 41.2087C123.133 40.1773 121.941 39.3612 120.649 38.7763C121.426 37.1769 121.838 35.4109 121.838 33.581C121.838 30.3964 120.595 27.4022 118.338 25.1506L116.904 23.7198C112.244 19.0718 104.662 19.0718 100.002 23.7198L98.1351 25.5815C97.5844 23.7648 96.5921 22.054 95.1553 20.6206C92.8978 18.3687 89.8963 17.1287 86.7038 17.1287C83.5113 17.1287 80.5099 18.3687 78.2526 20.6206L42.2691 56.5151L42.2901 56.4428C43.3991 52.6319 42.8065 48.5282 40.6644 45.1842C38.5225 41.8405 35.0386 39.58 31.1061 38.9827C24.9334 38.0438 18.8724 41.376 16.3711 47.085L7.252 67.8972C3.81124 75.7502 2.41753 84.408 3.22153 92.9345C3.99678 101.156 6.80219 109.116 11.3344 116.006C13.3535 125.702 18.1102 134.512 25.1446 141.529C34.7423 151.103 47.503 156.376 61.0761 156.376C74.6493 156.376 87.4102 151.103 97.0077 141.529L134.007 104.621C138.667 99.9726 138.667 92.409 134.008 87.7615L133.528 87.2828ZM104.476 28.1836C106.669 25.9964 110.237 25.9964 112.429 28.1833L113.863 29.6141C114.925 30.6738 115.51 32.0824 115.51 33.581C115.51 35.0793 114.925 36.4882 113.863 37.5479L113.485 37.9251C111.142 38.3639 108.986 39.4906 107.264 41.2087L105.405 43.0633C104.842 41.2121 103.827 39.5159 102.418 38.1091C100.993 36.6882 99.2945 35.704 97.4908 35.1519L104.476 28.1836ZM82.7274 25.0841C83.7894 24.0247 85.2018 23.4412 86.7038 23.4412C88.2061 23.4412 89.6182 24.0247 90.6805 25.0844C92.8734 27.2716 92.8734 30.8307 90.6805 33.0178L86.2403 37.4471C85.9922 37.6571 85.7489 37.8757 85.5148 38.1091L49.5313 74.0041L49.5525 73.9313C50.6613 70.1204 50.0688 66.017 47.927 62.6733C47.5546 62.0919 47.1391 61.5454 46.6902 61.0325L82.7274 25.0841ZM13.0505 70.4253L22.1696 49.6131C23.5248 46.5201 26.8072 44.7166 30.1533 45.223C32.2839 45.5467 34.1714 46.7716 35.332 48.5833C36.4925 50.3951 36.8136 52.6183 36.2129 54.6835L35.7344 56.3279C30.5324 56.5378 25.7768 59.6823 23.6333 64.5736L14.5144 85.386C12.5859 89.7873 11.306 94.3858 10.6872 99.0665C10.1282 96.8629 9.73605 94.6145 9.52184 92.3433C8.81812 84.8793 10.0383 77.3003 13.0505 70.4253ZM129.532 100.158L92.5329 137.066C84.1305 145.448 72.959 150.064 61.0761 150.064C49.1933 150.064 38.0217 145.448 29.6194 137.066C23.2677 130.73 19.0293 122.727 17.3623 113.923C15.6952 105.118 16.7155 96.1243 20.3129 87.9141L29.4318 67.1016C30.6344 64.3569 33.3547 62.6265 36.2898 62.6265C36.6623 62.6265 37.0387 62.6545 37.4155 62.7116C39.5463 63.0355 41.4339 64.2604 42.5945 66.0722C43.7549 67.8839 44.0759 70.1072 43.4753 72.172L40.0209 84.044C39.6183 85.4276 40.206 86.9074 41.4492 87.6407C42.6923 88.3733 44.2752 88.1739 45.2969 87.1555L89.9893 42.5729C92.1822 40.3863 95.7504 40.3854 97.9427 42.5729C99.005 43.6326 99.5899 45.0412 99.5899 46.5398C99.5899 48.0381 99.005 49.447 97.9427 50.5064L69.98 78.4003C68.7443 79.6329 68.7443 81.6315 69.9802 82.8641C71.2158 84.0964 73.2191 84.0964 74.4548 82.8641L111.739 45.6724C113.931 43.4849 117.499 43.4856 119.692 45.6724L121.126 47.1029C122.188 48.1623 122.773 49.5712 122.773 51.0695C122.773 52.5681 122.188 53.9767 121.126 55.0364L84.0808 91.9895C82.8453 93.2221 82.8453 95.2206 84.0808 96.4532C85.3167 97.6855 87.3196 97.6858 88.5556 96.4532L118.896 66.1877C121.089 64.0003 124.657 64.0009 126.849 66.1877L128.335 67.6694C129.397 68.7288 129.982 70.1377 129.982 71.636C129.982 73.1346 129.397 74.5432 128.335 75.6029L116.668 87.2403C116.654 87.2545 116.64 87.2687 116.626 87.2828L98.0907 105.772C96.8551 107.004 96.8551 109.003 98.0907 110.236C99.3267 111.468 101.33 111.469 102.566 110.236L121.128 91.7192C123.323 89.5594 126.87 89.5683 129.053 91.7457L129.532 92.2243C131.725 94.4115 131.725 97.9706 129.532 100.158Z" fill="black"/>
<path d="M143.815 26.3234C142.851 24.8689 140.887 24.4707 139.43 25.4314L132.821 29.791C131.364 30.7527 130.963 32.7108 131.927 34.1648C132.536 35.083 133.543 35.5804 134.569 35.5804C135.169 35.5804 135.774 35.4109 136.311 35.0568L142.921 30.6972C144.378 29.7355 144.779 27.7774 143.815 26.3234Z" fill="black"/>
<path d="M158.068 59.0467C157.851 57.317 156.266 56.0877 154.535 56.3078L146.673 57.2911C144.94 57.5078 143.71 59.0856 143.928 60.8153C144.128 62.4117 145.491 63.5792 147.063 63.5792C147.194 63.5792 147.327 63.5712 147.461 63.5543L155.323 62.571C157.056 62.3543 158.286 60.7765 158.068 59.0467Z" fill="black"/>
<path d="M112.042 12.7161C112.542 13.0065 113.09 13.1449 113.63 13.1449C114.72 13.1449 115.78 12.5827 116.368 11.5754L120.353 4.74382C121.232 3.2372 120.72 1.30523 119.209 0.428325C117.699 -0.447658 115.762 0.0627672 114.883 1.56908L110.898 8.40063C110.019 9.90725 110.531 11.8392 112.042 12.7161Z" fill="black"/>
<path d="M130.528 87.2828C129.092 85.8499 127.377 84.8586 125.556 84.3091L129.81 80.0666C132.067 77.8147 133.31 74.8206 133.31 71.636C133.31 68.4514 132.067 65.4572 129.81 63.2056L128.324 61.724C126.875 60.2781 125.143 59.2822 123.304 58.7357C125.115 56.5914 126.101 53.9061 126.101 51.0695C126.101 47.8849 124.858 44.8908 122.6 42.6392L121.166 41.2087C120.133 40.1773 118.941 39.3612 117.649 38.7763C118.426 37.1769 118.838 35.4109 118.838 33.581C118.838 30.3964 117.595 27.4022 115.338 25.1506L113.904 23.7198C109.244 19.0718 101.662 19.0718 97.0015 23.7198L95.1351 25.5815C94.5844 23.7648 93.5921 22.054 92.1553 20.6206C89.8978 18.3687 86.8963 17.1287 83.7038 17.1287C80.5113 17.1287 77.5099 18.3687 75.2526 20.6206L39.2691 56.5151L39.2901 56.4428C40.3991 52.6319 39.8065 48.5282 37.6644 45.1842C35.5225 41.8405 32.0386 39.58 28.1061 38.9827C21.9334 38.0438 15.8724 41.376 13.3711 47.085L4.252 67.8972C0.811235 75.7502 -0.582466 84.408 0.221527 92.9345C0.996784 101.156 3.80219 109.116 8.33442 116.006C10.3535 125.702 15.1102 134.512 22.1446 141.529C31.7423 151.103 44.503 156.376 58.0761 156.376C71.6493 156.376 84.4102 151.103 94.0077 141.529L131.007 104.621C135.667 99.9726 135.667 92.409 131.008 87.7615L130.528 87.2828ZM101.476 28.1836C103.669 25.9964 107.237 25.9964 109.429 28.1833L110.863 29.6141C111.925 30.6738 112.51 32.0824 112.51 33.581C112.51 35.0793 111.925 36.4882 110.863 37.5479L110.485 37.9251C108.142 38.3639 105.986 39.4906 104.264 41.2087L102.405 43.0633C101.842 41.2121 100.827 39.5159 99.4175 38.1091C97.9928 36.6882 96.2945 35.704 94.4908 35.1519L101.476 28.1836ZM79.7274 25.0841C80.7894 24.0247 82.2018 23.4412 83.7038 23.4412C85.2061 23.4412 86.6182 24.0247 87.6805 25.0844C89.8734 27.2716 89.8734 30.8307 87.6805 33.0178L83.2403 37.4471C82.9922 37.6571 82.7489 37.8757 82.5148 38.1091L46.5313 74.0041L46.5525 73.9313C47.6613 70.1204 47.0688 66.017 44.927 62.6733C44.5546 62.0919 44.1391 61.5454 43.6902 61.0325L79.7274 25.0841ZM10.0505 70.4253L19.1696 49.6131C20.5248 46.5201 23.8072 44.7166 27.1533 45.223C29.2839 45.5467 31.1714 46.7716 32.332 48.5833C33.4925 50.3951 33.8136 52.6183 33.2129 54.6835L32.7344 56.3279C27.5324 56.5378 22.7768 59.6823 20.6333 64.5736L11.5144 85.386C9.58587 89.7873 8.30595 94.3858 7.68724 99.0665C7.12824 96.8629 6.73605 94.6145 6.52184 92.3433C5.81812 84.8793 7.03832 77.3003 10.0505 70.4253ZM126.532 100.158L89.5329 137.066C81.1305 145.448 69.959 150.064 58.0761 150.064C46.1933 150.064 35.0217 145.448 26.6194 137.066C20.2677 130.73 16.0293 122.727 14.3623 113.923C12.6952 105.118 13.7155 96.1243 17.3129 87.9141L26.4318 67.1016C27.6344 64.3569 30.3547 62.6265 33.2898 62.6265C33.6623 62.6265 34.0387 62.6545 34.4155 62.7116C36.5463 63.0355 38.4339 64.2604 39.5945 66.0722C40.7549 67.8839 41.0759 70.1072 40.4753 72.172L37.0209 84.044C36.6183 85.4276 37.206 86.9074 38.4492 87.6407C39.6923 88.3733 41.2752 88.1739 42.2969 87.1555L86.9893 42.5729C89.1822 40.3863 92.7504 40.3854 94.9427 42.5729C96.005 43.6326 96.5899 45.0412 96.5899 46.5398C96.5899 48.0381 96.005 49.447 94.9427 50.5064L66.98 78.4003C65.7443 79.6329 65.7443 81.6315 66.9802 82.8641C68.2158 84.0964 70.2191 84.0964 71.4548 82.8641L108.739 45.6724C110.931 43.4849 114.499 43.4856 116.692 45.6724L118.126 47.1029C119.188 48.1623 119.773 49.5712 119.773 51.0695C119.773 52.5681 119.188 53.9767 118.126 55.0364L81.0808 91.9895C79.8453 93.2221 79.8453 95.2206 81.0808 96.4532C82.3167 97.6855 84.3196 97.6858 85.5556 96.4532L115.896 66.1877C118.089 64.0003 121.657 64.0009 123.849 66.1877L125.335 67.6694C126.397 68.7288 126.982 70.1377 126.982 71.636C126.982 73.1346 126.397 74.5432 125.335 75.6029L113.668 87.2403C113.654 87.2545 113.64 87.2687 113.626 87.2828L95.0907 105.772C93.8551 107.004 93.8551 109.003 95.0907 110.236C96.3267 111.468 98.3296 111.469 99.5655 110.236L118.128 91.7192C120.323 89.5594 123.87 89.5683 126.053 91.7457L126.532 92.2243C128.725 94.4115 128.725 97.9706 126.532 100.158Z" fill="black"/>
</svg>
