<svg width="168" height="187" viewBox="0 0 168 187" fill="none" xmlns="http://www.w3.org/2000/svg">
<path d="M168 51.867C168 23.2212 130.392 0 84 0C37.6083 0 0 23.2212 0 51.867V135.133C0 163.779 37.6083 187 84 187C130.392 187 168 163.779 168 135.133V51.867ZM14.0723 51.867C14.0723 46.7705 16.4177 36.7884 32.0028 27.1578C45.477 18.8277 64.3808 14.0593 84 14.0593C103.619 14.0593 122.523 18.8277 135.997 27.1461C151.594 36.7767 153.928 46.7705 153.928 51.8553C153.928 56.9401 151.582 66.9338 135.997 76.5644C134.402 77.5486 132.725 78.4859 130.978 79.3646C129.301 79.5004 127.729 80.2319 126.545 81.4266C114.302 86.7105 99.3388 89.6278 84 89.6278C64.4277 89.6278 45.477 84.8594 32.0028 76.541C16.406 66.9456 14.0723 56.9635 14.0723 51.867ZM41.7244 164.833C41.8716 164.263 41.9464 163.676 41.9472 163.088V96.7512C52.9856 100.617 64.5204 102.885 76.2016 103.488V172.613C64.3553 171.959 52.7019 169.33 41.7244 164.833ZM90.2739 103.57C101.929 103.107 113.461 101.004 124.528 97.3253V163.111C124.527 163.909 124.662 164.701 124.927 165.454C113.86 169.795 102.151 172.281 90.2739 172.812V103.57ZM14.0489 80.5948C18.2388 84.4188 22.8728 87.7268 27.8515 90.448V157.077C15.9486 148.349 14.0489 139.737 14.0489 135.133V80.5948ZM138.577 158.155V91.2681C144.131 88.393 149.287 84.8091 153.916 80.6065V135.145C153.928 139.925 151.864 149.063 138.601 158.155H138.577Z" fill="black"/>
</svg>
