<svg width="253" height="209" viewBox="0 0 253 209" fill="none" xmlns="http://www.w3.org/2000/svg">
<path d="M3.29423 197.98C3.99795 198.337 4.76512 198.551 5.55181 198.611C6.3385 198.671 7.12927 198.575 7.87886 198.329C8.62844 198.083 9.32212 197.691 9.92019 197.176C10.5183 196.662 11.009 196.034 11.3642 195.33L20.0342 178.16C36.0942 196.78 60.6142 208.69 88.1042 208.69C115.594 208.69 140.104 196.78 156.174 178.16L164.844 195.33C165.193 196.044 165.68 196.683 166.277 197.207C166.874 197.732 167.57 198.133 168.323 198.386C169.077 198.64 169.873 198.741 170.666 198.684C171.459 198.627 172.233 198.413 172.942 198.055C173.652 197.697 174.283 197.201 174.799 196.596C175.315 195.992 175.706 195.291 175.95 194.534C176.193 193.777 176.283 192.979 176.215 192.187C176.147 191.395 175.922 190.625 175.554 189.92L164.114 167.27C171.142 155.824 175.106 142.762 175.624 129.34H175.684V82.34C175.684 36.87 136.464 0 88.0942 0C39.7242 0 0.504228 36.89 0.504228 82.36V129.36H0.564229C1.08241 142.782 5.04622 155.844 12.0742 167.29L0.644227 189.92C-0.0730254 191.34 -0.196781 192.987 0.300176 194.499C0.797132 196.01 1.87411 197.262 3.29423 197.98ZM12.5042 126.34C12.5042 87.55 46.4142 56 88.0942 56C129.774 56 163.684 87.55 163.684 126.34C163.684 165.13 129.774 196.68 88.0942 196.68C46.4142 196.68 12.5042 165.13 12.5042 126.34ZM82.0942 12.26V44.2C69.8845 44.9569 57.9515 48.1604 47.0042 53.62V23.37C57.6608 16.9507 69.685 13.1436 82.0942 12.26ZM129.184 23.36V53.62C118.236 48.1638 106.303 44.9638 94.0942 44.21V12.26C106.503 13.1436 118.528 16.9507 129.184 23.37V23.36ZM163.684 84.72C157.813 75.3688 150.17 67.2564 141.184 60.84V32.35C155.064 45.11 163.684 62.82 163.684 82.35V84.72ZM35.0042 32.35V60.85C26.0184 67.2662 18.3748 75.3786 12.5042 84.73V82.36C12.5042 62.81 21.1242 45.11 35.0042 32.35Z" fill="black"/>
<path d="M200.556 79.2642C199.422 78.4155 197.995 78.051 196.591 78.2511C195.187 78.4511 193.92 79.1993 193.07 80.3309C192.219 81.4626 191.853 82.8851 192.054 84.2854C192.254 85.6858 193.004 86.9493 194.139 87.7981C196.041 89.9841 197.492 92.5224 198.409 95.2679C199.327 98.0134 199.693 100.912 199.487 103.799C199.693 106.686 199.327 109.585 198.409 112.33C197.492 115.076 196.041 117.614 194.139 119.8C193.577 120.22 193.104 120.747 192.746 121.35C192.388 121.952 192.153 122.619 192.054 123.313C191.954 124.006 191.993 124.712 192.167 125.391C192.342 126.069 192.648 126.707 193.07 127.267C193.568 127.93 194.214 128.467 194.956 128.838C195.699 129.208 196.517 129.401 197.348 129.401C198.505 129.401 199.63 129.026 200.556 128.334C203.846 125.183 206.41 121.358 208.072 117.122C209.734 112.885 210.454 108.34 210.182 103.799C210.454 99.2583 209.734 94.7127 208.072 90.4766C206.41 86.2405 203.846 82.4148 200.556 79.2642Z" fill="black"/>
<path d="M226.224 45.1287C225.662 44.7084 225.023 44.4027 224.343 44.2288C223.662 44.055 222.954 44.0165 222.259 44.1156C221.564 44.2146 220.895 44.4493 220.291 44.8061C219.687 45.163 219.159 45.6351 218.738 46.1954C218.316 46.7558 218.01 47.3934 217.835 48.0719C217.661 48.7504 217.622 49.4565 217.722 50.1499C217.922 51.5503 218.672 52.8138 219.807 53.6626C227.155 59.742 233.002 67.4257 236.897 76.1194C240.791 84.8132 242.629 94.2839 242.267 103.799C242.629 113.314 240.791 122.785 236.897 131.479C233.002 140.173 227.155 147.856 219.807 153.936C218.672 154.784 217.922 156.048 217.722 157.448C217.521 158.849 217.887 160.271 218.738 161.403C219.236 162.065 219.882 162.603 220.624 162.973C221.367 163.343 222.185 163.536 223.016 163.536C224.173 163.536 225.298 163.162 226.224 162.47C234.9 155.396 241.825 146.423 246.462 136.248C251.099 126.074 253.323 114.97 252.962 103.799C253.323 92.6283 251.099 81.5246 246.462 71.3498C241.825 61.175 234.9 52.2025 226.224 45.1287Z" fill="black"/>
<path d="M213.391 62.1964C212.829 61.7761 212.189 61.4703 211.509 61.2965C210.829 61.1227 210.121 61.0842 209.426 61.1832C208.731 61.2823 208.062 61.517 207.457 61.8738C206.853 62.2307 206.325 62.7028 205.904 63.2631C205.483 63.8235 205.176 64.4611 205.002 65.1396C204.827 65.8181 204.789 66.5242 204.888 67.2176C204.988 67.911 205.223 68.5781 205.581 69.1808C205.938 69.7835 206.412 70.31 206.973 70.7303C211.623 74.8545 215.285 79.9664 217.692 85.6894C220.098 91.4124 221.186 97.6008 220.877 103.799C221.186 109.997 220.098 116.186 217.692 121.909C215.285 127.632 211.623 132.744 206.973 136.868C206.412 137.288 205.938 137.815 205.581 138.417C205.223 139.02 204.988 139.687 204.888 140.38C204.789 141.074 204.827 141.78 205.002 142.458C205.176 143.137 205.483 143.775 205.904 144.335C206.402 144.997 207.048 145.535 207.791 145.905C208.533 146.276 209.352 146.468 210.182 146.468C211.339 146.468 212.465 146.094 213.391 145.402C219.407 140.314 224.175 133.919 227.327 126.707C230.479 119.495 231.931 111.658 231.572 103.799C231.931 95.9398 230.479 88.1031 227.327 80.8911C224.175 73.6791 219.407 67.2837 213.391 62.1964Z" fill="black"/>
</svg>
