<svg width="215" height="145" viewBox="0 0 215 145" fill="none" xmlns="http://www.w3.org/2000/svg">
<path d="M82.34 0C36.87 0 0 22.78 0 50.88V94.03C0 122.13 36.86 144.91 82.34 144.91C127.82 144.91 164.68 122.13 164.68 94.03V50.89C164.68 22.78 127.81 0 82.34 0ZM12.01 50.89C12.01 45.52 14.4 35.02 30.43 25.12C44.11 16.67 62.55 12.01 82.34 12.01C102.13 12.01 120.61 16.66 134.25 25.11C150.25 35.02 152.67 45.51 152.67 50.88C152.67 56.25 150.28 66.75 134.25 76.65C120.61 85.11 102.14 89.73 82.34 89.73C62.54 89.73 44.11 85.07 30.43 76.62C14.4 66.73 12.01 56.26 12.01 50.89ZM88.34 132.73V101.62C99.988 101.163 111.51 99.031 122.55 95.29V125.66C111.615 129.89 100.056 132.279 88.34 132.73ZM42.13 125.63V95.29C53.1704 99.031 64.692 101.163 76.34 101.62V132.73C64.6278 132.278 53.0714 129.889 42.14 125.66L42.13 125.63ZM12.01 77.35C17.3252 82.5857 23.4464 86.9344 30.14 90.23V119.62C14.38 109.73 12.01 99.38 12.01 94.04V77.35ZM134.55 90.23C141.244 86.9344 147.365 82.5857 152.68 77.35V94.04C152.68 99.38 150.31 109.77 134.55 119.62V90.23Z" fill="black"/>
<path d="M189.125 57.3048C188.181 56.5979 186.993 56.2944 185.824 56.461C184.654 56.6276 183.599 57.2507 182.891 58.1931C182.182 59.1356 181.878 60.3202 182.045 61.4864C182.212 62.6526 182.836 63.7049 183.781 64.4117C185.365 66.2322 186.573 68.3461 187.337 70.6325C188.102 72.919 188.407 75.3332 188.235 77.7372C188.407 80.1413 188.102 82.5555 187.337 84.842C186.573 87.1284 185.365 89.2423 183.781 91.0628C183.314 91.4128 182.919 91.8512 182.621 92.3532C182.323 92.8551 182.127 93.4106 182.045 93.9881C181.962 94.5655 181.994 95.1536 182.139 95.7186C182.284 96.2837 182.54 96.8147 182.891 97.2814C183.306 97.833 183.843 98.2808 184.462 98.5892C185.08 98.8975 185.762 99.0581 186.453 99.0581C187.417 99.0581 188.355 98.7464 189.125 98.1697C191.865 95.5459 194.001 92.36 195.385 88.8321C196.769 85.3043 197.368 81.5188 197.142 77.7372C197.368 73.9557 196.769 70.1702 195.385 66.6424C194.001 63.1145 191.865 59.9286 189.125 57.3048Z" fill="black"/>
<path d="M199.814 43.0908C199.346 42.7408 198.814 42.4861 198.247 42.3414C197.681 42.1966 197.091 42.1645 196.512 42.247C195.933 42.3295 195.376 42.525 194.873 42.8221C194.37 43.1193 193.93 43.5125 193.579 43.9791C193.228 44.4458 192.973 44.9768 192.828 45.5419C192.683 46.1069 192.651 46.695 192.733 47.2724C192.816 47.8499 193.012 48.4054 193.31 48.9073C193.608 49.4093 194.002 49.8477 194.47 50.1977C198.342 53.6324 201.392 57.8895 203.396 62.6555C205.4 67.4216 206.306 72.5753 206.049 77.7371C206.306 82.899 205.4 88.0527 203.396 92.8187C201.392 97.5848 198.342 101.842 194.47 105.277C194.002 105.627 193.608 106.065 193.31 106.567C193.012 107.069 192.816 107.624 192.733 108.202C192.651 108.779 192.683 109.367 192.828 109.932C192.973 110.497 193.228 111.029 193.579 111.495C193.994 112.047 194.532 112.495 195.15 112.803C195.769 113.111 196.451 113.272 197.142 113.272C198.105 113.272 199.043 112.96 199.814 112.384C204.825 108.147 208.795 102.821 211.42 96.8147C214.045 90.8086 215.254 84.2823 214.956 77.7371C215.254 71.192 214.045 64.6657 211.42 58.6596C208.795 52.6535 204.825 47.3274 199.814 43.0908Z" fill="black"/>
</svg>
