<svg width="215" height="162" viewBox="0 0 215 162" fill="none" xmlns="http://www.w3.org/2000/svg">
<path d="M60.8889 0V23.0091C25.6748 24.9581 0 40.5 0 60.75C0.125255 64.6356 1.07667 68.4504 2.79121 71.9414C4.50574 75.4325 6.94426 78.5202 9.94519 81C6.94302 83.4787 4.50365 86.5662 2.789 90.0575C1.07434 93.5488 0.123643 97.364 0 101.25C0 121.5 25.6748 137.042 60.8889 138.991V162H76.1111V138.991C111.325 137.042 137 121.5 137 101.25C136.876 97.364 135.926 93.5488 134.211 90.0575C132.496 86.5662 130.057 83.4787 127.055 81C130.056 78.5202 132.494 75.4325 134.209 71.9414C135.923 68.4504 136.875 64.6356 137 60.75C137 40.5 111.325 24.9581 76.1111 23.0091V0H60.8889ZM121.778 101.25C121.778 112.008 98.9445 124.031 68.5 124.031C38.0556 124.031 15.2222 112.008 15.2222 101.25C15.2222 97.3772 18.1906 93.3525 23.4169 89.7834C37.6173 95.9886 53.0006 99.0375 68.5 98.7188C83.9994 99.0375 99.3827 95.9886 113.583 89.7834C118.809 93.3525 121.778 97.3772 121.778 101.25ZM121.778 60.75C121.778 71.5078 98.9445 83.5312 68.5 83.5312C38.0556 83.5312 15.2222 71.5078 15.2222 60.75C15.2222 50.9034 34.3007 40.0444 60.8889 38.2472V60.75H76.1111V38.2472C102.699 40.0444 121.778 50.9034 121.778 60.75Z" fill="black"/>
<path d="M162.556 56.2023C161.422 55.3535 159.995 54.9891 158.591 55.1891C157.187 55.3892 155.92 56.1373 155.07 57.269C154.219 58.4007 153.853 59.8231 154.054 61.2235C154.254 62.6238 155.004 63.8874 156.139 64.7361C158.041 66.9221 159.492 69.4604 160.409 72.2059C161.327 74.9515 161.693 77.8504 161.487 80.7372C161.693 83.6239 161.327 86.5228 160.409 89.2684C159.492 92.0139 158.041 94.5522 156.139 96.7382C155.577 97.1584 155.104 97.6849 154.746 98.2877C154.388 98.8904 154.153 99.5574 154.054 100.251C153.954 100.944 153.993 101.65 154.167 102.329C154.342 103.007 154.648 103.645 155.07 104.205C155.568 104.868 156.214 105.405 156.956 105.776C157.699 106.146 158.517 106.339 159.348 106.339C160.505 106.339 161.63 105.964 162.556 105.272C165.846 102.121 168.41 98.2958 170.072 94.0597C171.734 89.8235 172.454 85.278 172.182 80.7372C172.454 76.1964 171.734 71.6508 170.072 67.4147C168.41 63.1785 165.846 59.3529 162.556 56.2023Z" fill="black"/>
<path d="M188.224 22.0667C187.662 21.6465 187.023 21.3407 186.343 21.1669C185.662 20.993 184.954 20.9546 184.259 21.0536C183.564 21.1527 182.895 21.3873 182.291 21.7442C181.687 22.101 181.159 22.5731 180.738 23.1335C180.316 23.6938 180.01 24.3314 179.835 25.01C179.661 25.6885 179.622 26.3946 179.722 27.088C179.922 28.4883 180.672 29.7519 181.807 30.6006C189.155 36.68 195.002 44.3638 198.897 53.0575C202.791 61.7512 204.629 71.2219 204.267 80.7372C204.629 90.2524 202.791 99.7231 198.897 108.417C195.002 117.111 189.155 124.794 181.807 130.874C180.672 131.722 179.922 132.986 179.722 134.386C179.521 135.787 179.887 137.209 180.738 138.341C181.236 139.003 181.882 139.541 182.624 139.911C183.367 140.282 184.185 140.474 185.016 140.474C186.173 140.474 187.298 140.1 188.224 139.408C196.9 132.334 203.825 123.361 208.462 113.186C213.099 103.012 215.323 91.908 214.962 80.7372C215.323 69.5663 213.099 58.4627 208.462 48.2878C203.825 38.113 196.9 29.1406 188.224 22.0667Z" fill="black"/>
<path d="M175.391 39.1344C174.829 38.7142 174.189 38.4084 173.509 38.2346C172.829 38.0607 172.121 38.0222 171.426 38.1213C170.731 38.2203 170.062 38.455 169.457 38.8119C168.853 39.1687 168.325 39.6408 167.904 40.2012C167.483 40.7615 167.176 41.3991 167.002 42.0777C166.827 42.7562 166.789 43.4623 166.888 44.1557C166.988 44.8491 167.223 45.5161 167.581 46.1188C167.938 46.7215 168.412 47.248 168.973 47.6683C173.623 51.7926 177.285 56.9044 179.692 62.6274C182.098 68.3504 183.186 74.5389 182.877 80.7371C183.186 86.9353 182.098 93.1237 179.692 98.8468C177.285 104.57 173.623 109.682 168.973 113.806C168.412 114.226 167.938 114.753 167.581 115.355C167.223 115.958 166.988 116.625 166.888 117.319C166.789 118.012 166.827 118.718 167.002 119.397C167.176 120.075 167.483 120.713 167.904 121.273C168.402 121.935 169.048 122.473 169.791 122.843C170.533 123.214 171.352 123.406 172.182 123.406C173.339 123.406 174.465 123.032 175.391 122.34C181.407 117.252 186.175 110.857 189.327 103.645C192.479 96.4331 193.931 88.5963 193.572 80.7371C193.931 72.8778 192.479 65.0411 189.327 57.8291C186.175 50.6171 181.407 44.2218 175.391 39.1344Z" fill="black"/>
</svg>
