<svg width="98" height="109" viewBox="0 0 98 109" fill="none" xmlns="http://www.w3.org/2000/svg">
<path d="M98 30.8239C98 14.2519 76.0618 0.818176 49 0.818176C21.9382 0.818176 0 14.2519 0 30.8239V78.9943C0 95.5662 21.9382 109 49 109C76.0618 109 98 95.5662 98 78.9943V30.8239ZM8.20885 30.8239C8.20885 27.8755 9.57699 22.1007 18.6683 16.5293C26.5283 11.7102 37.5555 8.95164 49 8.95164C60.4445 8.95164 71.4717 11.7102 79.3317 16.5225C88.4298 22.094 89.7912 27.8755 89.7912 30.8171C89.7912 33.7587 88.423 39.5402 79.3317 45.1117C78.4014 45.681 77.4231 46.2232 76.4039 46.7316C75.4257 46.8101 74.5084 47.2333 73.8181 47.9245C66.6764 50.9813 57.9476 52.669 49 52.669C37.5829 52.669 26.5283 49.9104 18.6683 45.0981C9.57015 39.547 8.20885 33.7723 8.20885 30.8239ZM24.3392 96.1762C24.4251 95.8463 24.4688 95.507 24.4692 95.1663V56.7899C30.9083 59.0261 37.6369 60.3384 44.4509 60.6872V100.677C37.5406 100.299 30.7428 98.7777 24.3392 96.1762ZM52.6598 60.7347C59.4586 60.4667 66.1853 59.2505 72.6415 57.1221V95.1799C72.6408 95.6416 72.7195 96.1 72.8741 96.5355C66.4182 99.0466 59.5883 100.485 52.6598 100.792V60.7347ZM8.19517 47.4432C10.6393 49.6555 13.3425 51.5692 16.2467 53.1435V91.6893C9.30336 86.6398 8.19517 81.658 8.19517 78.9943V47.4432ZM80.8367 92.3128V53.6179C84.0763 51.9546 87.084 49.8813 89.7843 47.45V79.0011C89.7911 81.7665 88.5872 87.0532 80.8503 92.3128H80.8367Z" fill="black"/>
</svg>
